<svg xmlns="http://www.w3.org/2000/svg" viewBox="0 0 1600 640" preserveAspectRatio="xMidYMid slice">
  <defs>
    <linearGradient id="sky" x1="0" y1="0" x2="0" y2="1">
      <stop offset="0" stop-color="#5eb3e8"/>
      <stop offset="0.6" stop-color="#8ecdf2"/>
      <stop offset="1" stop-color="#cdeafb"/>
    </linearGradient>
    <linearGradient id="sun" x1="0" y1="0" x2="0" y2="1">
      <stop offset="0" stop-color="#fff3b0"/>
      <stop offset="1" stop-color="#ffd54f"/>
    </linearGradient>
    <linearGradient id="field" x1="0" y1="0" x2="0" y2="1">
      <stop offset="0" stop-color="#4aa64f"/>
      <stop offset="1" stop-color="#2e7d32"/>
    </linearGradient>
    <radialGradient id="glow" cx="0.5" cy="0.5" r="0.5">
      <stop offset="0" stop-color="#fff59d" stop-opacity="0.7"/>
      <stop offset="1" stop-color="#fff59d" stop-opacity="0"/>
    </radialGradient>
  </defs>

  <!-- sky -->
  <rect width="1600" height="640" fill="url(#sky)"/>

  <!-- sun -->
  <circle cx="1310" cy="130" r="150" fill="url(#glow)"/>
  <circle cx="1310" cy="130" r="78" fill="url(#sun)"/>

  <!-- clouds -->
  <g fill="#ffffff" opacity="0.95">
    <g transform="translate(200,110)">
      <ellipse cx="0" cy="0" rx="70" ry="26"/>
      <ellipse cx="52" cy="-14" rx="48" ry="22"/>
      <ellipse cx="-56" cy="-8" rx="42" ry="18"/>
    </g>
    <g transform="translate(700,70)">
      <ellipse cx="0" cy="0" rx="58" ry="20"/>
      <ellipse cx="42" cy="-12" rx="38" ry="17"/>
      <ellipse cx="-44" cy="-6" rx="34" ry="14"/>
    </g>
    <g transform="translate(1050,200)" opacity="0.8">
      <ellipse cx="0" cy="0" rx="44" ry="15"/>
      <ellipse cx="32" cy="-9" rx="28" ry="12"/>
    </g>
  </g>

  <!-- birds -->
  <g stroke="#3d6f96" stroke-width="3.5" fill="none" stroke-linecap="round">
    <path d="M470 150 q10 -10 20 0 q10 -10 20 0"/>
    <path d="M540 120 q8 -8 16 0 q8 -8 16 0"/>
  </g>

  <!-- distant hills -->
  <path d="M0 430 Q 250 350 520 420 T 1050 425 T 1600 415 L1600 640 L0 640 Z" fill="#67b56b"/>
  <!-- trees on hills -->
  <g fill="#3c8c46">
    <circle cx="150" cy="408" r="26"/><rect x="146" y="418" width="8" height="18" fill="#7a5230"/>
    <circle cx="215" cy="398" r="20"/><rect x="212" y="408" width="6" height="15" fill="#7a5230"/>
    <circle cx="1480" cy="400" r="24"/><rect x="1476" y="410" width="8" height="17" fill="#7a5230"/>
  </g>

  <!-- field -->
  <path d="M0 470 Q 400 440 800 460 T 1600 465 L1600 640 L0 640 Z" fill="url(#field)"/>

  <!-- infield dirt diamond -->
  <ellipse cx="800" cy="590" rx="430" ry="90" fill="#c98a54"/>
  <ellipse cx="800" cy="590" rx="330" ry="62" fill="#d69a62"/>
  <!-- base lines -->
  <path d="M800 640 L560 585 L800 535 L1040 585 Z" fill="none" stroke="#fff" stroke-width="5" opacity="0.95"/>
  <rect x="548" y="578" width="18" height="14" fill="#fff" transform="rotate(-8 557 585)"/>
  <rect x="791" y="528" width="18" height="14" fill="#fff"/>
  <rect x="1034" y="578" width="18" height="14" fill="#fff" transform="rotate(8 1043 585)"/>
  <circle cx="800" cy="586" r="26" fill="#bd7c47"/>

  <!-- kids in uniform -->
  <!-- batter -->
  <g transform="translate(430,455)">
    <circle cx="0" cy="-58" r="15" fill="#f2c197"/>
    <path d="M-15 -66 Q0 -80 15 -66 L17 -60 Q0 -72 -17 -60 Z" fill="#1a2b5e"/>
    <path d="M-11 -68 Q0 -82 11 -68 Q5 -75 0 -75 Q-5 -75 -11 -68 Z" fill="#1a2b5e"/>
    <path d="M-11 -45 Q0 -39 11 -45 L14 -6 Q0 2 -14 -6 Z" fill="#fdfdf8"/>
    <path d="M-11 -45 L-12 -22 L-6 -22 L-6 -43 Z" fill="#f57c00"/>
    <path d="M-12 -8 L-20 34 L-12 36 L-2 4 L6 36 L14 34 L8 -8 Z" fill="#1a2b5e"/>
    <path d="M8 -40 L46 -72 L52 -66 L14 -32 Z" fill="#f2c197"/>
    <g transform="rotate(-40 55 -75)"><rect x="42" y="-80" width="30" height="10" rx="5" fill="#c98a3f"/></g>
  </g>
  <!-- pitcher -->
  <g transform="translate(800,430)">
    <circle cx="0" cy="-54" r="14" fill="#e8b083"/>
    <path d="M-14 -62 Q0 -76 14 -62 L16 -56 Q0 -68 -16 -56 Z" fill="#1a2b5e"/>
    <path d="M-10 -64 Q0 -78 10 -64 Q5 -71 0 -71 Q-5 -71 -10 -64 Z" fill="#1a2b5e"/>
    <path d="M-10 -42 Q0 -36 10 -42 L12 -6 Q0 1 -12 -6 Z" fill="#fdfdf8"/>
    <path d="M-10 -7 L-24 30 L-16 33 L-2 3 L10 32 L18 29 L9 -7 Z" fill="#1a2b5e"/>
    <path d="M7 -38 L34 -60 L39 -53 L11 -30 Z" fill="#e8b083"/>
    <circle cx="38" cy="-60" r="6" fill="#fff" stroke="#e8702a" stroke-width="1.5"/>
  </g>
  <!-- fielder -->
  <g transform="translate(1130,470)">
    <circle cx="0" cy="-50" r="14" fill="#f2c197"/>
    <path d="M-14 -58 Q0 -72 14 -58 L16 -52 Q0 -64 -16 -52 Z" fill="#1a2b5e"/>
    <path d="M-10 -60 Q0 -74 10 -60 Q5 -67 0 -67 Q-5 -67 -10 -60 Z" fill="#1a2b5e"/>
    <path d="M-10 -38 Q0 -32 10 -38 L11 -4 Q0 2 -11 -4 Z" fill="#fdfdf8"/>
    <path d="M-9 -5 L-16 28 L-8 30 L0 4 L8 30 L16 28 L9 -5 Z" fill="#1a2b5e"/>
    <path d="M-8 -34 L-32 -22 L-29 -14 L-6 -26 Z" fill="#f2c197"/>
    <circle cx="-33" cy="-20" r="9" fill="#b06a3b"/>
    <path d="M8 -34 L30 -44 L34 -37 L11 -26 Z" fill="#f2c197"/>
  </g>
</svg>
