<svg xmlns="http://www.w3.org/2000/svg" viewBox="0 0 200 200">
  <defs>
    <linearGradient id="shield" x1="0" y1="0" x2="0" y2="1">
      <stop offset="0" stop-color="#16294a"/>
      <stop offset="1" stop-color="#0a1628"/>
    </linearGradient>
    <linearGradient id="goldg" x1="0" y1="0" x2="0" y2="1">
      <stop offset="0" stop-color="#e3c878"/>
      <stop offset="1" stop-color="#b08d2f"/>
    </linearGradient>
  </defs>
  <!-- shield -->
  <path d="M100 8 L182 36 V104 Q182 160 100 194 Q18 160 18 104 V36 Z" fill="url(#shield)" stroke="url(#goldg)" stroke-width="7"/>
  <!-- inner line -->
  <path d="M100 26 L166 48 V102 Q166 148 100 176 Q34 148 34 102 V48 Z" fill="none" stroke="#c9a545" stroke-width="2.5" opacity="0.7"/>
  <!-- laurel hints -->
  <g stroke="#c9a545" stroke-width="3" fill="none" opacity="0.85" stroke-linecap="round">
    <path d="M46 70 Q40 96 52 118"/>
    <path d="M46 74 L54 72 M44 86 L52 86 M46 100 L54 102 M50 112 L57 116"/>
    <path d="M154 70 Q160 96 148 118"/>
    <path d="M154 74 L146 72 M156 86 L148 86 M154 100 L146 102 M150 112 L143 116"/>
  </g>
  <!-- baseball -->
  <circle cx="100" cy="94" r="38" fill="#fdfcf7"/>
  <path d="M76 66 Q 91 94 76 122" fill="none" stroke="#c9a545" stroke-width="3.5" stroke-linecap="round"/>
  <path d="M124 66 Q 109 94 124 122" fill="none" stroke="#c9a545" stroke-width="3.5" stroke-linecap="round"/>
  <g stroke="#c9a545" stroke-width="2.5" stroke-linecap="round">
    <path d="M80 78 L87 81"/><path d="M79 93 L87 94"/><path d="M80 108 L87 105"/>
    <path d="M120 78 L113 81"/><path d="M121 93 L113 94"/><path d="M120 108 L113 105"/>
  </g>
  <!-- H initial -->
  <text x="100" y="106" font-family="Georgia, serif" font-size="36" font-weight="bold" fill="#16294a" text-anchor="middle">H</text>
  <!-- banner -->
  <path d="M30 140 L170 140 L160 162 L40 162 Z" fill="url(#goldg)"/>
  <text x="100" y="157" font-family="Georgia, serif" font-size="15" font-weight="bold" fill="#0a1628" text-anchor="middle" letter-spacing="2">HIRANO</text>
</svg>
