<svg xmlns="http://www.w3.org/2000/svg" viewBox="0 0 200 200">
  <defs>
    <linearGradient id="bgd" x1="0" y1="0" x2="1" y2="1">
      <stop offset="0" stop-color="#43a047"/>
      <stop offset="1" stop-color="#2e7d32"/>
    </linearGradient>
  </defs>
  <rect width="200" height="200" rx="14" fill="url(#bgd)"/>
  <path d="M-10 150 L210 105 L210 118 L-10 163 Z" fill="#1a2b5e" opacity="0.3"/>
  <!-- body -->
  <path d="M52 200 Q52 152 100 152 Q148 152 148 200 Z" fill="#f57c00"/>
  <path d="M88 152 L100 168 L112 152 L106 148 L100 155 L94 148 Z" fill="#fdfdf8"/>
  <!-- megaphone -->
  <path d="M130 168 L158 154 L158 186 Z" fill="#1a2b5e"/>
  <rect x="124" y="164" width="10" height="12" rx="3" fill="#16244d"/>
  <!-- head -->
  <rect x="84" y="126" width="32" height="30" rx="9" fill="#dda678"/>
  <circle cx="100" cy="106" r="30" fill="#eebd8e"/>
  <circle cx="70" cy="110" r="6" fill="#dda678"/><circle cx="130" cy="110" r="6" fill="#dda678"/>
  <path d="M86 114 Q100 130 114 114" fill="none" stroke="#7a4a2a" stroke-width="4" stroke-linecap="round"/>
  <circle cx="88" cy="102" r="4" fill="#2b1c10"/><circle cx="112" cy="102" r="4" fill="#2b1c10"/>
  <path d="M80 92 L96 90" stroke="#3f2c18" stroke-width="4.5" stroke-linecap="round"/>
  <path d="M120 92 L104 90" stroke="#3f2c18" stroke-width="4.5" stroke-linecap="round"/>
  <!-- bucket hat -->
  <path d="M76 90 Q76 58 100 58 Q124 58 124 90 Z" fill="#1a2b5e"/>
  <path d="M68 88 Q100 78 132 88 L128 100 Q100 90 72 100 Z" fill="#16244d"/>
  <circle cx="100" cy="60" r="3.5" fill="#f57c00"/>
</svg>
