<svg xmlns="http://www.w3.org/2000/svg" viewBox="0 0 200 200">
  <defs>
    <linearGradient id="bgj" x1="0" y1="0" x2="1" y2="1">
      <stop offset="0" stop-color="#16244d"/>
      <stop offset="1" stop-color="#0d1830"/>
    </linearGradient>
  </defs>
  <rect width="200" height="200" rx="14" fill="url(#bgj)"/>
  <path d="M-10 150 L210 105 L210 118 L-10 163 Z" fill="#43a047" opacity="0.4"/>
  <!-- body -->
  <path d="M52 200 Q52 152 100 152 Q148 152 148 200 Z" fill="#f57c00"/>
  <path d="M88 152 L100 168 L112 152 L106 148 L100 155 L94 148 Z" fill="#fdfdf8"/>
  <!-- stopwatch -->
  <circle cx="146" cy="180" r="13" fill="#fdfdf8" stroke="#3a3a3a" stroke-width="3"/>
  <path d="M146 180 L146 172 M146 180 L152 182" stroke="#3a3a3a" stroke-width="2.5" stroke-linecap="round"/>
  <rect x="142" y="162" width="8" height="5" rx="2" fill="#3a3a3a"/>
  <!-- head: 40s -->
  <rect x="84" y="126" width="32" height="30" rx="9" fill="#dda678"/>
  <ellipse cx="100" cy="107" rx="30" ry="29" fill="#eebd8e"/>
  <circle cx="70" cy="111" r="6" fill="#dda678"/><circle cx="130" cy="111" r="6" fill="#dda678"/>
  <!-- light stubble -->
  <path d="M84 122 Q100 134 116 122 Q112 132 100 134 Q88 132 84 122 Z" fill="#c99a6e" opacity="0.5"/>
  <path d="M88 118 Q100 126 112 118" fill="none" stroke="#7a4a2a" stroke-width="3.5" stroke-linecap="round"/>
  <circle cx="88" cy="103" r="4" fill="#2b1c10"/><circle cx="112" cy="103" r="4" fill="#2b1c10"/>
  <path d="M79 93 L96 91" stroke="#3f2c18" stroke-width="4.5" stroke-linecap="round"/>
  <path d="M121 93 L104 91" stroke="#3f2c18" stroke-width="4.5" stroke-linecap="round"/>
  <!-- dark hair at temples -->
  <path d="M71 92 Q69 108 73 116 L79 113 Q75 102 77 92 Z" fill="#4a3526"/>
  <path d="M129 92 Q131 108 127 116 L121 113 Q125 102 123 92 Z" fill="#4a3526"/>
  <!-- cap: navy/orange -->
  <path d="M72 90 Q72 60 100 60 Q128 60 128 90 Q114 82 100 82 Q86 82 72 90 Z" fill="#1a2b5e"/>
  <path d="M126 88 Q152 90 156 100 Q134 96 122 96 Z" fill="#f57c00"/>
  <text x="100" y="80" font-family="Georgia, serif" font-size="15" font-weight="bold" fill="#f57c00" text-anchor="middle">H</text>
</svg>
