<svg xmlns="http://www.w3.org/2000/svg" viewBox="0 0 200 200">
  <defs>
    <linearGradient id="bgf" x1="0" y1="0" x2="1" y2="1">
      <stop offset="0" stop-color="#2e7d32"/>
      <stop offset="1" stop-color="#256428"/>
    </linearGradient>
  </defs>
  <rect width="200" height="200" rx="14" fill="url(#bgf)"/>
  <path d="M-10 150 L210 105 L210 118 L-10 163 Z" fill="#fff" opacity="0.18"/>
  <!-- body -->
  <path d="M52 200 Q52 152 100 152 Q148 152 148 200 Z" fill="#1a2b5e"/>
  <path d="M88 152 L100 168 L112 152 L106 148 L100 155 L94 148 Z" fill="#fdfdf8"/>
  <!-- towel around neck -->
  <path d="M74 150 Q100 138 126 150 L124 160 Q100 148 76 160 Z" fill="#f57c00"/>
  <!-- head (60s male, glasses) -->
  <rect x="84" y="126" width="32" height="30" rx="9" fill="#c98f60"/>
  <circle cx="100" cy="106" r="30" fill="#dda678"/>
  <circle cx="70" cy="110" r="6" fill="#c98f60"/><circle cx="130" cy="110" r="6" fill="#c98f60"/>
  <!-- gray hair at sides -->
  <path d="M72 92 Q68 110 74 120 L80 117 Q76 104 78 92 Z" fill="#d8d8d8"/>
  <path d="M128 92 Q132 110 126 120 L120 117 Q124 104 122 92 Z" fill="#d8d8d8"/>
  <path d="M86 116 Q100 126 114 116" fill="none" stroke="#6d4020" stroke-width="4" stroke-linecap="round"/>
  <!-- glasses -->
  <g fill="none" stroke="#3a3a3a" stroke-width="3">
    <circle cx="88" cy="104" r="9"/>
    <circle cx="112" cy="104" r="9"/>
    <path d="M97 104 L103 104"/>
    <path d="M79 102 L72 100"/><path d="M121 102 L128 100"/>
  </g>
  <circle cx="88" cy="105" r="3.5" fill="#2b1c10"/><circle cx="112" cy="105" r="3.5" fill="#2b1c10"/>
  <!-- gray brows -->
  <path d="M80 92 L96 90" stroke="#b8b8b8" stroke-width="5" stroke-linecap="round"/>
  <path d="M120 92 L104 90" stroke="#b8b8b8" stroke-width="5" stroke-linecap="round"/>
  <!-- cap -->
  <path d="M72 90 Q72 60 100 60 Q128 60 128 90 Q114 82 100 82 Q86 82 72 90 Z" fill="#1a2b5e"/>
  <path d="M126 88 Q152 90 156 100 Q134 96 122 96 Z" fill="#f57c00"/>
  <text x="100" y="80" font-family="Georgia, serif" font-size="15" font-weight="bold" fill="#f57c00" text-anchor="middle">H</text>
</svg>
