<svg xmlns="http://www.w3.org/2000/svg" viewBox="0 0 200 200">
  <defs>
    <linearGradient id="bgk" x1="0" y1="0" x2="1" y2="1">
      <stop offset="0" stop-color="#1a2b5e"/>
      <stop offset="1" stop-color="#16244d"/>
    </linearGradient>
  </defs>
  <rect width="200" height="200" rx="14" fill="url(#bgk)"/>
  <path d="M-10 150 L210 105 L210 118 L-10 163 Z" fill="#f57c00" opacity="0.4"/>
  <!-- body -->
  <path d="M52 200 Q52 152 100 152 Q148 152 148 200 Z" fill="#2e7d32"/>
  <path d="M88 152 L100 168 L112 152 L106 148 L100 155 L94 148 Z" fill="#fdfdf8"/>
  <!-- clipboard -->
  <rect x="124" y="158" width="34" height="42" rx="4" fill="#fdfdf8" transform="rotate(8 141 179)"/>
  <rect x="130" y="154" width="16" height="8" rx="3" fill="#f57c00" transform="rotate(8 138 158)"/>
  <g stroke="#9aa7c4" stroke-width="3" stroke-linecap="round">
    <path d="M132 172 L148 174"/><path d="M131 182 L147 184"/><path d="M130 192 L140 193"/>
  </g>
  <!-- head: 30s woman, bob hair -->
  <rect x="84" y="126" width="32" height="30" rx="9" fill="#e8b083"/>
  <circle cx="100" cy="106" r="29" fill="#f2c197"/>
  <!-- bob hair -->
  <path d="M68 116 Q64 70 100 66 Q136 70 132 116 Q128 92 100 90 Q72 92 68 116 Z" fill="#3a2c20"/>
  <path d="M68 114 Q64 128 72 134 L78 112 Z" fill="#3a2c20"/>
  <path d="M132 114 Q136 128 128 134 L122 112 Z" fill="#3a2c20"/>
  <!-- bright smile -->
  <path d="M87 115 Q100 127 113 115" fill="none" stroke="#8a5a3b" stroke-width="4" stroke-linecap="round"/>
  <circle cx="88" cy="102" r="4" fill="#2b1c10"/><circle cx="112" cy="102" r="4" fill="#2b1c10"/>
  <path d="M81 93 Q88 89 95 92" stroke="#3a2c20" stroke-width="3.5" fill="none" stroke-linecap="round"/>
  <path d="M119 93 Q112 89 105 92" stroke="#3a2c20" stroke-width="3.5" fill="none" stroke-linecap="round"/>
  <!-- cheeks -->
  <circle cx="79" cy="111" r="4.5" fill="#f0a884" opacity="0.6"/>
  <circle cx="121" cy="111" r="4.5" fill="#f0a884" opacity="0.6"/>
  <!-- cap -->
  <path d="M74 88 Q74 60 100 60 Q126 60 126 88 Q113 81 100 81 Q87 81 74 88 Z" fill="#f57c00"/>
  <path d="M124 86 Q150 88 154 98 Q132 94 120 94 Z" fill="#c96400"/>
  <circle cx="100" cy="62" r="3.5" fill="#1a2b5e"/>
</svg>
