<svg xmlns="http://www.w3.org/2000/svg" viewBox="0 0 200 200">
  <defs>
    <linearGradient id="bgg" x1="0" y1="0" x2="1" y2="1">
      <stop offset="0" stop-color="#43a047"/>
      <stop offset="1" stop-color="#2e7d32"/>
    </linearGradient>
  </defs>
  <rect width="200" height="200" rx="14" fill="url(#bgg)"/>
  <path d="M-10 150 L210 105 L210 118 L-10 163 Z" fill="#1a2b5e" opacity="0.3"/>
  <!-- body -->
  <path d="M52 200 Q52 152 100 152 Q148 152 148 200 Z" fill="#f57c00"/>
  <path d="M88 152 L100 168 L112 152 L106 148 L100 155 L94 148 Z" fill="#fdfdf8"/>
  <!-- clipboard -->
  <rect x="124" y="158" width="34" height="42" rx="4" fill="#fdfdf8" transform="rotate(8 141 179)"/>
  <rect x="130" y="154" width="16" height="8" rx="3" fill="#1a2b5e" transform="rotate(8 138 158)"/>
  <g stroke="#9aa7c4" stroke-width="3" stroke-linecap="round">
    <path d="M132 172 L148 174"/><path d="M131 182 L147 184"/>
  </g>
  <!-- head (30s female, ponytail through cap) -->
  <rect x="84" y="126" width="32" height="30" rx="9" fill="#e8b083"/>
  <circle cx="100" cy="106" r="30" fill="#f2c197"/>
  <circle cx="70" cy="110" r="6" fill="#e8b083"/><circle cx="130" cy="110" r="6" fill="#e8b083"/>
  <!-- side hair -->
  <path d="M70 96 Q68 116 76 124 L82 120 Q76 108 78 94 Z" fill="#4a3526"/>
  <path d="M130 96 Q132 116 124 124 L118 120 Q124 108 122 94 Z" fill="#4a3526"/>
  <!-- ponytail -->
  <path d="M124 76 Q148 70 152 92 Q154 112 142 124 Q148 104 138 92 Q132 82 124 84 Z" fill="#4a3526"/>
  <!-- bright smile -->
  <path d="M86 114 Q100 128 114 114" fill="none" stroke="#8a5a3b" stroke-width="4" stroke-linecap="round"/>
  <circle cx="88" cy="103" r="4" fill="#2b1c10"/><circle cx="112" cy="103" r="4" fill="#2b1c10"/>
  <path d="M81 94 Q88 90 95 93" stroke="#4a3526" stroke-width="4" fill="none" stroke-linecap="round"/>
  <path d="M119 94 Q112 90 105 93" stroke="#4a3526" stroke-width="4" fill="none" stroke-linecap="round"/>
  <!-- cap -->
  <path d="M74 90 Q74 62 100 62 Q126 62 126 90 Q113 83 100 83 Q87 83 74 90 Z" fill="#1a2b5e"/>
  <path d="M124 88 Q150 90 154 100 Q132 96 120 96 Z" fill="#f57c00"/>
  <circle cx="100" cy="64" r="3.5" fill="#f57c00"/>
</svg>
