<svg xmlns="http://www.w3.org/2000/svg" viewBox="0 0 200 200">
  <defs>
    <linearGradient id="bgb" x1="0" y1="0" x2="1" y2="1">
      <stop offset="0" stop-color="#1a2b5e"/>
      <stop offset="1" stop-color="#101f42"/>
    </linearGradient>
  </defs>
  <rect width="200" height="200" rx="14" fill="url(#bgb)"/>
  <path d="M-10 150 L210 105 L210 118 L-10 163 Z" fill="#43a047" opacity="0.4"/>
  <!-- body -->
  <path d="M52 200 Q52 152 100 152 Q148 152 148 200 Z" fill="#2e7d32"/>
  <path d="M88 152 L100 168 L112 152 L106 148 L100 155 L94 148 Z" fill="#fdfdf8"/>
  <!-- head -->
  <rect x="84" y="126" width="32" height="30" rx="9" fill="#c98f60"/>
  <circle cx="100" cy="106" r="30" fill="#dda678"/>
  <circle cx="70" cy="110" r="6" fill="#c98f60"/><circle cx="130" cy="110" r="6" fill="#c98f60"/>
  <path d="M86 116 Q100 128 114 116" fill="none" stroke="#6d4020" stroke-width="4" stroke-linecap="round"/>
  <circle cx="88" cy="103" r="4" fill="#2b1c10"/><circle cx="112" cy="103" r="4" fill="#2b1c10"/>
  <path d="M80 93 L96 91" stroke="#33230f" stroke-width="4.5" stroke-linecap="round"/>
  <path d="M120 93 L104 91" stroke="#33230f" stroke-width="4.5" stroke-linecap="round"/>
  <!-- cap backwards -->
  <path d="M72 90 Q72 60 100 60 Q128 60 128 90 Q114 82 100 82 Q86 82 72 90 Z" fill="#f57c00"/>
  <path d="M74 88 Q66 90 60 96 Q70 94 76 94 Z" fill="#c96400"/>
  <circle cx="100" cy="62" r="3.5" fill="#1a2b5e"/>
</svg>
