<svg xmlns="http://www.w3.org/2000/svg" viewBox="0 0 200 200">
  <defs>
    <linearGradient id="bgc2" x1="0" y1="0" x2="1" y2="1">
      <stop offset="0" stop-color="#f57c00"/>
      <stop offset="1" stop-color="#e8611a"/>
    </linearGradient>
  </defs>
  <rect width="200" height="200" rx="14" fill="url(#bgc2)"/>
  <path d="M-10 150 L210 105 L210 118 L-10 163 Z" fill="#fff" opacity="0.25"/>
  <!-- body -->
  <path d="M52 200 Q52 152 100 152 Q148 152 148 200 Z" fill="#1a2b5e"/>
  <path d="M88 152 L100 168 L112 152 L106 148 L100 155 L94 148 Z" fill="#fdfdf8"/>
  <!-- clipboard -->
  <rect x="124" y="158" width="34" height="42" rx="4" fill="#fdfdf8" transform="rotate(8 141 179)"/>
  <rect x="130" y="154" width="16" height="8" rx="3" fill="#2e7d32" transform="rotate(8 138 158)"/>
  <g stroke="#9aa7c4" stroke-width="3" stroke-linecap="round">
    <path d="M132 172 L148 174"/><path d="M131 182 L147 184"/>
  </g>
  <!-- head (female, bob hair) -->
  <rect x="84" y="126" width="32" height="30" rx="9" fill="#e8b083"/>
  <circle cx="100" cy="106" r="30" fill="#f2c197"/>
  <path d="M68 118 Q64 74 100 70 Q136 74 132 118 Q128 96 100 92 Q72 96 68 118 Z" fill="#4a3526"/>
  <path d="M68 118 Q66 130 74 134 L76 112 Z" fill="#4a3526"/>
  <path d="M132 118 Q134 130 126 134 L124 112 Z" fill="#4a3526"/>
  <path d="M88 118 Q100 128 112 118" fill="none" stroke="#8a5a3b" stroke-width="4" stroke-linecap="round"/>
  <circle cx="88" cy="104" r="4" fill="#2b1c10"/><circle cx="112" cy="104" r="4" fill="#2b1c10"/>
  <path d="M81 95 Q88 91 95 94" stroke="#4a3526" stroke-width="4" fill="none" stroke-linecap="round"/>
  <path d="M119 95 Q112 91 105 94" stroke="#4a3526" stroke-width="4" fill="none" stroke-linecap="round"/>
  <!-- visor -->
  <path d="M70 92 Q100 80 130 92 L134 100 Q100 88 66 100 Z" fill="#2e7d32"/>
</svg>
